<svg width="113" height="24" fill="none" xmlns="http://www.w3.org/2000/svg"><path d="M10.624 4.727a7.568 7.568 0 012.606.464 7.675 7.675 0 013.779 3.034 8.883 8.883 0 00-4.522-6.652A8.658 8.658 0 008.3.5c-1.279 0-3.266.272-4.362.768-1.64.6-2.714 1.576-3.938 2.682l5.073 3.206a7.537 7.537 0 015.551-2.428z" fill="#003EDC"/><path d="M15.967 11.955h-.004c-.153.013-.307.023-.458.03h-.038a7.57 7.57 0 01-5.92-2.617 7.659 7.659 0 01-1.612-3.005 7.687 7.687 0 00-4.154 5.187l-.154.875-.612 3.508-.144.817.532-.46.894-.778-.144-1.958a3.775 3.775 0 01-.048-.607v-.02l5.186.118c-.843.389-2.33 1.698-2.91 2.314l-.007.01c-.131.14-.256.282-.378.431l-.442 1.796-.052.208h.004l-.125.505-.023.094L4.105 23.5l4.727-2.558.045-.237.18-.953c.019-.09.038-.169.057-.237a8.507 8.507 0 01.272-.84c1.08-2.842 2.437-3.49 2.347-3.49.07-.06.147-.114.224-.166.657-.464 1.516-.798 2.446-.927a4.02 4.02 0 01.467-.04l.046-.002.855-.963 1.131-1.277-.06.012a7.404 7.404 0 01-.875.133z" fill="#003EDC"/><path d="M26.237 15.95c-.176.477-.458.844-.875 1.093-.407.247-.875.367-1.4.367-.542 0-.965-.11-1.273-.347a1.138 1.138 0 01-.468-.953c0-.837.631-1.258 1.897-1.258h2.119v1.099zm1.753-6.324c-.881-.794-2.147-1.196-3.795-1.196-.849 0-1.685.113-2.5.34-.807.23-1.51.551-2.086.963l1.106 2.178a4.599 4.599 0 011.4-.732 5.417 5.417 0 011.667-.266c.82 0 1.43.181 1.833.548.417.366.622.891.622 1.569h-2.455c-1.551 0-2.705.292-3.452.859-.747.574-1.115 1.368-1.115 2.366 0 .623.157 1.187.477 1.673.314.496.773.885 1.369 1.167.602.273 1.31.419 2.134.419 1.58 0 2.657-.503 3.234-1.502v1.343h2.888V13.21c0-1.598-.44-2.794-1.327-3.585zm25.434 3.318c.096-1.099.497-1.974 1.218-2.658.708-.677 1.586-1.015 2.638-1.015 1.067 0 1.952.338 2.673 1.015.711.684 1.115 1.56 1.208 2.658h-7.737zm9.154.645c0-1.085-.231-2.055-.69-2.898-.458-.849-1.083-1.514-1.887-1.984-.801-.483-1.705-.723-2.721-.723-1.01 0-1.917.24-2.724.723a4.976 4.976 0 00-1.907 1.99c-.465.857-.696 1.823-.696 2.893 0 1.079.237 2.048.728 2.904a5.198 5.198 0 002.016 1.997c.868.49 1.858.73 2.98.73.869 0 1.667-.153 2.394-.464a4.572 4.572 0 001.818-1.345l-.827-.97c-.414.483-.91.843-1.475 1.09a4.709 4.709 0 01-1.871.37c-1.199 0-2.196-.36-2.987-1.064-.782-.707-1.215-1.63-1.305-2.785h9.128l.026-.464zm8.351.801a3.036 3.036 0 00-1.343-.856 18.651 18.651 0 00-2.093-.502 16.61 16.61 0 01-1.66-.37c-.404-.12-.744-.301-1.013-.557-.27-.26-.404-.594-.404-1.008 0-.545.237-.983.721-1.32.475-.334 1.183-.506 2.125-.506 1.24 0 2.317.312 3.215.947l.644-1.2c-.462-.304-1.038-.55-1.74-.742a8 8 0 00-2.119-.292c-1.362 0-2.42.299-3.18.889-.759.583-1.134 1.345-1.134 2.262 0 .743.19 1.326.568 1.745.378.424.836.716 1.374.894.545.175 1.257.344 2.144.512.664.114 1.193.224 1.593.344.407.12.738.295.997.525.263.234.394.555.394.953 0 .577-.237 1.025-.714 1.336-.478.311-1.212.47-2.209.47-.75 0-1.47-.11-2.156-.344-.696-.233-1.263-.525-1.722-.894l-.666 1.176c.458.393 1.093.72 1.897.976.808.263 1.66.393 2.545.393 1.407 0 2.513-.292 3.307-.85.795-.567 1.193-1.332 1.193-2.302 0-.71-.183-1.27-.564-1.679zm11.008 1.45a3.778 3.778 0 01-1.464 1.523 4.135 4.135 0 01-2.077.538c-.779 0-1.474-.185-2.08-.538a3.747 3.747 0 01-1.455-1.524c-.356-.658-.529-1.407-.529-2.25 0-.836.173-1.578.529-2.23a3.85 3.85 0 011.455-1.524c.606-.363 1.301-.544 2.08-.544.766 0 1.452.181 2.077.544a3.874 3.874 0 011.464 1.524c.353.652.526 1.394.526 2.23 0 .843-.173 1.592-.526 2.25zm1.292-5.168a5.038 5.038 0 00-1.949-1.984 5.606 5.606 0 00-2.778-.704c-.914 0-1.737.201-2.465.594a4.636 4.636 0 00-1.747 1.679V8.075h-1.413v15.11h1.478V17.04a4.497 4.497 0 001.746 1.62c.721.377 1.516.562 2.4.562 1.04 0 1.972-.234 2.792-.704a4.965 4.965 0 001.936-1.984c.478-.856.708-1.832.708-2.944 0-1.085-.23-2.061-.708-2.917zm2.937 2.272c.103-1.099.504-1.974 1.218-2.658.709-.677 1.596-1.015 2.644-1.015 1.061 0 1.955.338 2.667 1.015.712.684 1.115 1.56 1.208 2.658h-7.737zm9.154.645c0-1.085-.23-2.055-.69-2.898a4.934 4.934 0 00-1.887-1.984c-.801-.483-1.711-.723-2.715-.723-1.01 0-1.92.24-2.733.723a4.969 4.969 0 00-1.904 1.99c-.465.857-.696 1.823-.696 2.893 0 1.079.244 2.048.728 2.904a5.172 5.172 0 002.022 1.997c.862.49 1.86.73 2.971.73.878 0 1.677-.153 2.404-.464a4.573 4.573 0 001.81-1.345l-.83-.97c-.41.483-.9.843-1.47 1.09a4.71 4.71 0 01-1.862.37c-1.212 0-2.209-.36-2.99-1.064-.79-.707-1.225-1.63-1.312-2.785h9.128l.026-.464zm9.388 2.685l1.1.758a4.205 4.205 0 01-1.763 1.624c-.75.376-1.59.561-2.513.561-1.083 0-2.048-.24-2.894-.713a5.195 5.195 0 01-2.006-2.007c-.484-.862-.728-1.831-.728-2.91 0-1.07.244-2.04.728-2.892A5.162 5.162 0 0198.638 8.7c.846-.477 1.811-.717 2.894-.717.939 0 1.779.192 2.523.558a4.2 4.2 0 011.753 1.624l-1.1.759a3.563 3.563 0 00-1.375-1.232 4.012 4.012 0 00-1.801-.405c-.791 0-1.503.175-2.125.534a3.769 3.769 0 00-1.48 1.518c-.347.664-.52 1.407-.52 2.246 0 .856.173 1.608.52 2.263.355.648.846 1.15 1.48 1.51.622.354 1.334.539 2.125.539.648 0 1.25-.136 1.801-.402a3.414 3.414 0 001.375-1.222zm7.765 1.134a2.04 2.04 0 01-.734.415 2.475 2.475 0 01-.884.152c-.612 0-1.077-.178-1.401-.518-.323-.338-.49-.84-.49-1.498V9.372h3.32V8.11h-3.32V5.695h-1.468V16.04c0 1.021.276 1.815.827 2.373.554.564 1.343.843 2.365.843a4.03 4.03 0 001.279-.201c.404-.136.75-.328 1.029-.574l-.523-1.073z" fill="#F5F0EC"/><path d="M26.237 15.95c-.176.477-.458.844-.875 1.093-.407.247-.875.367-1.4.367-.542 0-.965-.11-1.273-.347a1.138 1.138 0 01-.468-.953c0-.837.631-1.258 1.897-1.258h2.119v1.099zm1.753-6.324c-.881-.794-2.147-1.196-3.795-1.196-.849 0-1.685.113-2.5.34-.807.23-1.51.551-2.086.963l1.106 2.178a4.599 4.599 0 011.4-.732 5.417 5.417 0 011.667-.266c.82 0 1.43.181 1.833.548.417.366.622.891.622 1.569h-2.455c-1.551 0-2.705.292-3.452.859-.747.574-1.115 1.368-1.115 2.366 0 .623.157 1.187.477 1.673.314.496.773.885 1.369 1.167.602.273 1.31.419 2.134.419 1.58 0 2.657-.503 3.234-1.502v1.343h2.888V13.21c0-1.598-.44-2.794-1.327-3.585zm17.325 3.55h-3.868V5.807h3.868c1.44 0 2.538.318 3.295.96.76.632 1.138 1.54 1.138 2.732 0 1.167-.379 2.065-1.138 2.714-.757.638-1.856.963-3.295.963zm-7.544 2.96c-.513.538-1.16.813-1.936.813-.792 0-1.443-.276-1.955-.814-.523-.535-.78-1.254-.78-2.165 0-.905.257-1.628.78-2.169.512-.541 1.163-.814 1.955-.814.775 0 1.423.273 1.936.814.512.541.765 1.264.765 2.169 0 .91-.253 1.63-.765 2.165zm10.201-2.014c1.058-.35 1.878-.92 2.455-1.711.57-.795.862-1.758.862-2.912 0-1.565-.529-2.797-1.58-3.692-1.054-.895-2.506-1.342-4.356-1.342l-6.874.049V9.73c-.763-.87-1.824-1.304-3.18-1.304-1.003 0-1.913.23-2.717.688-.814.447-1.446 1.092-1.914 1.935-.461.843-.686 1.812-.686 2.92 0 1.106.225 2.082.686 2.918.468.84 1.1 1.488 1.914 1.939.804.457 1.714.684 2.718.684 1.445 0 2.554-.463 3.32-1.4v1.241h2.945v-4.856h3.788c.404 0 .789-.02 1.164-.062l3.317 4.724h1.686l-3.548-5.035zm5.452-1.178c.096-1.099.497-1.974 1.218-2.658.708-.677 1.586-1.015 2.638-1.015 1.067 0 1.952.338 2.673 1.015.711.684 1.115 1.56 1.208 2.658h-7.737zm9.154.645c0-1.085-.231-2.055-.69-2.898-.458-.849-1.083-1.514-1.887-1.984-.801-.483-1.705-.723-2.721-.723-1.01 0-1.917.24-2.724.723a4.976 4.976 0 00-1.907 1.99c-.465.857-.696 1.823-.696 2.893 0 1.079.237 2.048.728 2.904a5.198 5.198 0 002.016 1.997c.868.49 1.858.73 2.98.73.869 0 1.667-.153 2.394-.464a4.572 4.572 0 001.818-1.345l-.827-.97c-.414.483-.91.843-1.475 1.09a4.709 4.709 0 01-1.871.37c-1.199 0-2.196-.36-2.987-1.064-.782-.707-1.215-1.63-1.305-2.785h9.128l.026-.464zm8.351.798c.381.408.56.966.56 1.68 0 .965-.394 1.734-1.192 2.3-.791.562-1.897.85-3.304.85-.885 0-1.737-.13-2.545-.392-.807-.256-1.439-.584-1.897-.976l.663-1.177c.459.37 1.029.665 1.725.898.685.23 1.407.344 2.156.344.997 0 1.731-.162 2.206-.473.483-.311.72-.759.72-1.336 0-.399-.134-.72-.397-.95-.26-.233-.593-.408-.993-.528-.404-.12-.933-.234-1.6-.344-.884-.168-1.596-.337-2.14-.512a3.079 3.079 0 01-1.376-.895c-.378-.415-.57-.998-.57-1.744 0-.917.381-1.68 1.141-2.263.756-.59 1.817-.885 3.176-.885a8.1 8.1 0 012.119.286c.705.194 1.278.44 1.74.745l-.641 1.2c-.9-.632-1.978-.944-3.218-.944-.939 0-1.65.166-2.125.503-.484.337-.72.775-.72 1.32 0 .414.134.751.403 1.007.27.256.609.438 1.013.558.394.114.948.24 1.66.37.868.168 1.564.334 2.093.502.522.169.97.447 1.343.856zm11.008 1.453a3.778 3.778 0 01-1.464 1.523 4.135 4.135 0 01-2.077.538c-.779 0-1.474-.185-2.08-.538a3.747 3.747 0 01-1.455-1.524c-.356-.658-.529-1.407-.529-2.25 0-.836.173-1.578.529-2.23a3.85 3.85 0 011.455-1.524c.606-.363 1.301-.544 2.08-.544.766 0 1.452.181 2.077.544a3.874 3.874 0 011.464 1.524c.353.652.526 1.394.526 2.23 0 .843-.173 1.592-.526 2.25zm1.292-5.168a5.038 5.038 0 00-1.949-1.984 5.606 5.606 0 00-2.778-.704c-.914 0-1.737.201-2.465.594a4.636 4.636 0 00-1.747 1.679V8.075h-1.413v15.11h1.478V17.04a4.497 4.497 0 001.746 1.62c.721.377 1.516.562 2.4.562 1.04 0 1.972-.234 2.792-.704a4.965 4.965 0 001.936-1.984c.478-.856.708-1.832.708-2.944 0-1.085-.23-2.061-.708-2.917zm2.937 2.272c.103-1.099.504-1.974 1.218-2.658.709-.677 1.596-1.015 2.644-1.015 1.061 0 1.955.338 2.667 1.015.712.684 1.115 1.56 1.208 2.658h-7.737zm9.154.645c0-1.085-.23-2.055-.69-2.898a4.934 4.934 0 00-1.887-1.984c-.801-.483-1.711-.723-2.715-.723-1.01 0-1.92.24-2.733.723a4.969 4.969 0 00-1.904 1.99c-.465.857-.696 1.823-.696 2.893 0 1.079.244 2.048.728 2.904a5.172 5.172 0 002.022 1.997c.862.49 1.86.73 2.971.73.878 0 1.677-.153 2.404-.464a4.573 4.573 0 001.81-1.345l-.83-.97c-.41.483-.9.843-1.47 1.09a4.71 4.71 0 01-1.862.37c-1.212 0-2.209-.36-2.99-1.064-.79-.707-1.225-1.63-1.312-2.785h9.128l.026-.464zm17.679 4.889a2.9 2.9 0 01-1.029.577 4.03 4.03 0 01-1.279.2c-1.019 0-1.81-.281-2.365-.839-.551-.56-.83-1.352-.83-2.376V5.695h1.471V8.11h3.321v1.262h-3.321v6.59c0 .655.167 1.157.491 1.495.323.343.791.518 1.4.518.308 0 .599-.048.885-.152a2.02 2.02 0 00.734-.415l.522 1.07z" fill="#F5F0EC"/></svg>